<svg width="680.0" height="720.0" style="background:white" xmlns="http://www.w3.org/2000/svg">
<circle cx="200.0" cy="120.0" r="40" fill="white" style="stroke:black; stroke-width:1"/>
<line x1="228.2842712474619" y1="148.2842712474619" x2="228.2842712474619" y2="288.2842712474619" style="stroke:black; stroke-width:1"/>
<line x1="171.7157287525381" y1="148.2842712474619" x2="171.7157287525381" y2="288.2842712474619" style="stroke:black; stroke-width:1"/>
<line x1="228.2842712474619" y1="288.2842712474619" x2="171.7157287525381" y2="288.2842712474619" style="stroke:black; stroke-width:1"/>
<text x="160.0" y="76.0" font-family="arial" font-size="{:font_size=>10}" fill="black" style="writing-mode: lr">ThingCollection</text>
<line x1="171.7157287525381" y1="156" x2="131.7157287525381" y2="156" style="stroke:black; stroke-width:1"/>
<text x="112" y="146" font-family="arial" font-size="9" fill="black" style="writing-mode: lr">initialize</text>
<line x1="131.7157287525381" y1="156" x2="124.64466094067262" y2="148.92893218813452" style="stroke:black; stroke-width:1"/>
<line x1="131.7157287525381" y1="156" x2="124.64466094067262" y2="163.07106781186548" style="stroke:black; stroke-width:1"/>
<line x1="171.7157287525381" y1="198" x2="101.7157287525381" y2="198" style="stroke:black; stroke-width:1"/>
<text x="82" y="188" font-family="arial" font-size="9" fill="black" style="writing-mode: lr">one_type_things</text>
<line x1="101.7157287525381" y1="198" x2="94.64466094067262" y2="190.92893218813452" style="stroke:black; stroke-width:1"/>
<line x1="101.7157287525381" y1="198" x2="92.80566351065443" y2="193.46009500260453" style="stroke:black; stroke-width:1"/>
<line x1="101.7157287525381" y1="198" x2="91.83884534658672" y2="196.43565534959768" style="stroke:black; stroke-width:1"/>
<line x1="101.7157287525381" y1="198" x2="91.83884534658672" y2="199.56434465040232" style="stroke:black; stroke-width:1"/>
<line x1="101.7157287525381" y1="198" x2="92.80566351065443" y2="202.53990499739547" style="stroke:black; stroke-width:1"/>
<line x1="101.7157287525381" y1="198" x2="94.64466094067262" y2="205.07106781186548" style="stroke:black; stroke-width:1"/>
<line x1="171.7157287525381" y1="240" x2="101.7157287525381" y2="240" style="stroke:black; stroke-width:1"/>
<text x="82" y="230" font-family="arial" font-size="9" fill="black" style="writing-mode: lr">one_thing_by_type</text>
<line x1="101.7157287525381" y1="240" x2="94.64466094067262" y2="232.92893218813452" style="stroke:black; stroke-width:1"/>
<line x1="101.7157287525381" y1="240" x2="91.7157287525381" y2="240.0" style="stroke:black; stroke-width:1"/>
<line x1="101.7157287525381" y1="240" x2="94.64466094067262" y2="247.07106781186548" style="stroke:black; stroke-width:1"/>
<line x1="228.2842712474619" y1="156" x2="298.2842712474619" y2="156" style="stroke:black; stroke-width:1"/>
<text x="278" y="146" font-family="arial" font-size="9" fill="black" style="writing-mode: lr">weather_clothing</text>
<line x1="298.2842712474619" y1="156" x2="305.3553390593274" y2="148.92893218813452" style="stroke:black; stroke-width:1"/>
<line x1="298.2842712474619" y1="156" x2="307.94352951035256" y2="153.4118095489748" style="stroke:black; stroke-width:1"/>
<line x1="298.2842712474619" y1="156" x2="307.94352951035256" y2="158.5881904510252" style="stroke:black; stroke-width:1"/>
<line x1="298.2842712474619" y1="156" x2="305.3553390593274" y2="163.07106781186548" style="stroke:black; stroke-width:1"/>
<line x1="228.2842712474619" y1="198" x2="234.2842712474619" y2="198" style="stroke:black; stroke-width:1"/>
<ellipse cx="239" cy="198" rx="5" ry="2" style="stroke:black; stroke-width:1" fill="white"/>
<line x1="244.2842712474619" y1="198" x2="250.2842712474619" y2="198" style="stroke:black; stroke-width:1"/>
<ellipse cx="255" cy="198" rx="5" ry="2" style="stroke:black; stroke-width:1" fill="white"/>
<line x1="260.2842712474619" y1="198" x2="266.2842712474619" y2="198" style="stroke:black; stroke-width:1"/>
<ellipse cx="271" cy="198" rx="5" ry="2" style="stroke:black; stroke-width:1" fill="white"/>
<line x1="276.2842712474619" y1="198" x2="282.2842712474619" y2="198" style="stroke:black; stroke-width:1"/>
<ellipse cx="287" cy="198" rx="5" ry="2" style="stroke:black; stroke-width:1" fill="white"/>
<line x1="292.2842712474619" y1="198" x2="298.2842712474619" y2="198" style="stroke:black; stroke-width:1"/>
<text x="278" y="188" font-family="arial" font-size="9" fill="black" style="writing-mode: lr">signal</text>
<line x1="298.2842712474619" y1="198" x2="305.3553390593274" y2="190.92893218813452" style="stroke:black; stroke-width:1"/>
<line x1="298.2842712474619" y1="198" x2="307.52306657257475" y2="194.1731656763491" style="stroke:black; stroke-width:1"/>
<line x1="298.2842712474619" y1="198" x2="308.2842712474619" y2="198.0" style="stroke:black; stroke-width:1"/>
<line x1="298.2842712474619" y1="198" x2="307.52306657257475" y2="201.8268343236509" style="stroke:black; stroke-width:1"/>
<line x1="298.2842712474619" y1="198" x2="305.3553390593274" y2="205.07106781186548" style="stroke:black; stroke-width:1"/>
<line x1="180" y1="288.2842712474619" x2="180" y2="304.2842712474619" style="stroke:black; stroke-width:1"/>
<ellipse cx="180" cy="309" rx="2" ry="5" style="stroke:black; stroke-width:1" fill="white"/>
<line x1="180" y1="306.2842712474619" x2="180" y2="322.2842712474619" style="stroke:black; stroke-width:1"/>
<ellipse cx="180" cy="327" rx="2" ry="5" style="stroke:black; stroke-width:1" fill="white"/>
<line x1="180" y1="324.2842712474619" x2="180" y2="340.2842712474619" style="stroke:black; stroke-width:1"/>
<text x="190" y="298" font-family="arial" font-size="9" fill="black" style="writing-mode: tb">all_types</text>
<line x1="205" y1="288.2842712474619" x2="205" y2="318.2842712474619" style="stroke:black; stroke-width:1"/>
<ellipse cx="205" cy="323" rx="2" ry="5" style="stroke:black; stroke-width:1" fill="white"/>
<line x1="205" y1="320.2842712474619" x2="205" y2="350.2842712474619" style="stroke:black; stroke-width:1"/>
<text x="215" y="298" font-family="arial" font-size="9" fill="black" style="writing-mode: tb">message</text>
<circle cx="480.0" cy="120.0" r="40" fill="white" style="stroke:black; stroke-width:1"/>
<line x1="508.2842712474619" y1="148.2842712474619" x2="508.2842712474619" y2="288.2842712474619" style="stroke:black; stroke-width:1"/>
<line x1="451.7157287525381" y1="148.2842712474619" x2="451.7157287525381" y2="288.2842712474619" style="stroke:black; stroke-width:1"/>
<line x1="508.2842712474619" y1="288.2842712474619" x2="451.7157287525381" y2="288.2842712474619" style="stroke:black; stroke-width:1"/>
<text x="440.0" y="76.0" font-family="arial" font-size="{:font_size=>10}" fill="black" style="writing-mode: lr">AnotherCollection</text>
<line x1="451.7157287525381" y1="156" x2="411.7157287525381" y2="156" style="stroke:black; stroke-width:1"/>
<text x="392" y="146" font-family="arial" font-size="9" fill="black" style="writing-mode: lr">initialize</text>
<line x1="411.7157287525381" y1="156" x2="404.6446609406726" y2="148.92893218813452" style="stroke:black; stroke-width:1"/>
<line x1="508.2842712474619" y1="156" x2="548.2842712474619" y2="156" style="stroke:black; stroke-width:1"/>
<text x="528" y="146" font-family="arial" font-size="9" fill="black" style="writing-mode: lr">render</text>
<line x1="548.2842712474619" y1="156" x2="555.3553390593274" y2="148.92893218813452" style="stroke:black; stroke-width:1"/>
<line x1="548.2842712474619" y1="156" x2="555.3553390593274" y2="163.07106781186548" style="stroke:black; stroke-width:1"/>
<line x1="474" y1="288.2842712474619" x2="474" y2="304.2842712474619" style="stroke:black; stroke-width:1"/>
<ellipse cx="474" cy="309" rx="2" ry="5" style="stroke:black; stroke-width:1" fill="white"/>
<line x1="474" y1="306.2842712474619" x2="474" y2="322.2842712474619" style="stroke:black; stroke-width:1"/>
<ellipse cx="474" cy="327" rx="2" ry="5" style="stroke:black; stroke-width:1" fill="white"/>
<line x1="474" y1="324.2842712474619" x2="474" y2="340.2842712474619" style="stroke:black; stroke-width:1"/>
<text x="484" y="298" font-family="arial" font-size="9" fill="black" style="writing-mode: tb">show</text>
<line x1="499" y1="288.2842712474619" x2="499" y2="318.2842712474619" style="stroke:black; stroke-width:1"/>
<ellipse cx="499" cy="323" rx="2" ry="5" style="stroke:black; stroke-width:1" fill="white"/>
<line x1="499" y1="320.2842712474619" x2="499" y2="350.2842712474619" style="stroke:black; stroke-width:1"/>
<text x="509" y="298" font-family="arial" font-size="9" fill="black" style="writing-mode: tb">find</text>
<circle cx="200.0" cy="440.0" r="40" fill="white" style="stroke:black; stroke-width:1"/>
<line x1="228.2842712474619" y1="468.2842712474619" x2="228.2842712474619" y2="608.2842712474619" style="stroke:black; stroke-width:1"/>
<line x1="171.7157287525381" y1="468.2842712474619" x2="171.7157287525381" y2="608.2842712474619" style="stroke:black; stroke-width:1"/>
<line x1="228.2842712474619" y1="608.2842712474619" x2="171.7157287525381" y2="608.2842712474619" style="stroke:black; stroke-width:1"/>
<text x="160.0" y="396.0" font-family="arial" font-size="{:font_size=>10}" fill="black" style="writing-mode: lr">SomeClass</text>
<line x1="171.7157287525381" y1="492" x2="131.7157287525381" y2="492" style="stroke:black; stroke-width:1"/>
<text x="112" y="482" font-family="arial" font-size="9" fill="black" style="writing-mode: lr">initialize</text>
<line x1="131.7157287525381" y1="492" x2="124.64466094067262" y2="484.9289321881345" style="stroke:black; stroke-width:1"/>
<line x1="131.7157287525381" y1="492" x2="121.7157287525381" y2="492.0" style="stroke:black; stroke-width:1"/>
<line x1="131.7157287525381" y1="492" x2="124.64466094067262" y2="499.0710678118655" style="stroke:black; stroke-width:1"/>
<line x1="228.2842712474619" y1="492" x2="243.2842712474619" y2="492" style="stroke:black; stroke-width:1"/>
<ellipse cx="248" cy="492" rx="5" ry="2" style="stroke:black; stroke-width:1" fill="white"/>
<line x1="253.2842712474619" y1="492" x2="268.2842712474619" y2="492" style="stroke:black; stroke-width:1"/>
<text x="248" y="482" font-family="arial" font-size="9" fill="black" style="writing-mode: lr">compute</text>
<line x1="268.2842712474619" y1="492" x2="275.3553390593274" y2="484.9289321881345" style="stroke:black; stroke-width:1"/>
<line x1="268.2842712474619" y1="492" x2="277.94352951035256" y2="489.4118095489748" style="stroke:black; stroke-width:1"/>
<line x1="268.2842712474619" y1="492" x2="277.94352951035256" y2="494.5881904510252" style="stroke:black; stroke-width:1"/>
<line x1="268.2842712474619" y1="492" x2="275.3553390593274" y2="499.0710678118655" style="stroke:black; stroke-width:1"/>
<line x1="180" y1="608.2842712474619" x2="180" y2="623.2842712474619" style="stroke:black; stroke-width:1"/>
<ellipse cx="180" cy="628" rx="2" ry="5" style="stroke:black; stroke-width:1" fill="white"/>
<line x1="180" y1="625.2842712474619" x2="180" y2="640.2842712474619" style="stroke:black; stroke-width:1"/>
<text x="190" y="618" font-family="arial" font-size="9" fill="black" style="writing-mode: tb">scan</text>
</svg>