<?xml version="1.0" standalone="no"?>
<!DOCTYPE svg PUBLIC "-//W3C//DTD SVG 1.1//EN" "http://www.w3.org/Graphics/SVG/1.1/DTD/svg11.dtd">
<svg width="680.0" height="720.0" style="background:white" xmlns="http://www.w3.org/2000/svg">
<circle cx="200.0" cy="120.0" r="40" fill="white" style="stroke:green; stroke-width:1"/>
<line x1="228.2842712474619" y1="148.2842712474619" x2="228.2842712474619" y2="288.2842712474619" style="stroke:green; stroke-width:1"/>
<line x1="171.7157287525381" y1="148.2842712474619" x2="171.7157287525381" y2="288.2842712474619" style="stroke:green; stroke-width:1"/>
<line x1="228.2842712474619" y1="288.2842712474619" x2="171.7157287525381" y2="288.2842712474619" style="stroke:green; stroke-width:1"/>
<text x="160.0" y="76.0" font-family="arial" font-size="14" fill="green" style="writing-mode: lr">NewCollection</text>
<line x1="171.7157287525381" y1="156" x2="156.7157287525381" y2="156" style="stroke:green; stroke-width:1"/>
<ellipse cx="151.7157287525381" cy="156" rx="5" ry="2" style="stroke:green; stroke-width:1" fill="white"/>
<line x1="146.7157287525381" y1="156" x2="131.7157287525381" y2="156" style="stroke:green; stroke-width:1"/>
<text x="112" y="146" font-family="arial" font-size="10" fill="green" style="writing-mode: lr">initialize</text>
<line x1="131.7157287525381" y1="156" x2="124.64466094067262" y2="148.92893218813452" style="stroke:green; stroke-width:1"/>
<line x1="171.7157287525381" y1="219" x2="155.7157287525381" y2="219" style="stroke:green; stroke-width:1"/>
<ellipse cx="150.7157287525381" cy="219" rx="5" ry="2" style="stroke:green; stroke-width:1" fill="white"/>
<line x1="145.7157287525381" y1="219" x2="129.7157287525381" y2="219" style="stroke:green; stroke-width:1"/>
<ellipse cx="124.7157287525381" cy="219" rx="5" ry="2" style="stroke:green; stroke-width:1" fill="white"/>
<line x1="119.7157287525381" y1="219" x2="103.7157287525381" y2="219" style="stroke:green; stroke-width:1"/>
<text x="82" y="209" font-family="arial" font-size="10" fill="green" style="writing-mode: lr">show</text>
<line x1="228.2842712474619" y1="156" x2="268.2842712474619" y2="156" style="stroke:green; stroke-width:1"/>
<text x="248" y="146" font-family="arial" font-size="10" fill="green" style="writing-mode: lr">render</text>
<line x1="268.2842712474619" y1="156" x2="275.3553390593274" y2="148.92893218813452" style="stroke:green; stroke-width:1"/>
<line x1="268.2842712474619" y1="156" x2="275.3553390593274" y2="163.07106781186548" style="stroke:green; stroke-width:1"/>
<line x1="228.2842712474619" y1="219" x2="258.2842712474619" y2="219" style="stroke:green; stroke-width:1"/>
<ellipse cx="263.2842712474619" cy="219" rx="5" ry="2" style="stroke:green; stroke-width:1" fill="white"/>
<line x1="268.2842712474619" y1="219" x2="298.2842712474619" y2="219" style="stroke:green; stroke-width:1"/>
<text x="278" y="209" font-family="arial" font-size="10" fill="green" style="writing-mode: lr">find</text>
<circle cx="480.0" cy="120.0" r="40" fill="white" style="stroke:red; stroke-width:1"/>
<line x1="508.2842712474619" y1="148.2842712474619" x2="508.2842712474619" y2="288.2842712474619" style="stroke:red; stroke-width:1"/>
<line x1="451.7157287525381" y1="148.2842712474619" x2="451.7157287525381" y2="288.2842712474619" style="stroke:red; stroke-width:1"/>
<line x1="508.2842712474619" y1="288.2842712474619" x2="451.7157287525381" y2="288.2842712474619" style="stroke:red; stroke-width:1"/>
<text x="440.0" y="76.0" font-family="arial" font-size="14" fill="red" style="writing-mode: lr">OldCollection</text>
<line x1="451.7157287525381" y1="156" x2="411.7157287525381" y2="156" style="stroke:red; stroke-width:1"/>
<text x="392" y="146" font-family="arial" font-size="10" fill="red" style="writing-mode: lr">initialize</text>
<line x1="411.7157287525381" y1="156" x2="404.6446609406726" y2="148.92893218813452" style="stroke:red; stroke-width:1"/>
<line x1="451.7157287525381" y1="219" x2="435.7157287525381" y2="219" style="stroke:red; stroke-width:1"/>
<ellipse cx="430.7157287525381" cy="219" rx="5" ry="2" style="stroke:red; stroke-width:1" fill="white"/>
<line x1="425.7157287525381" y1="219" x2="409.7157287525381" y2="219" style="stroke:red; stroke-width:1"/>
<ellipse cx="404.7157287525381" cy="219" rx="5" ry="2" style="stroke:red; stroke-width:1" fill="white"/>
<line x1="399.7157287525381" y1="219" x2="383.7157287525381" y2="219" style="stroke:red; stroke-width:1"/>
<text x="362" y="209" font-family="arial" font-size="10" fill="red" style="writing-mode: lr">show</text>
<line x1="508.2842712474619" y1="156" x2="548.2842712474619" y2="156" style="stroke:red; stroke-width:1"/>
<text x="528" y="146" font-family="arial" font-size="10" fill="red" style="writing-mode: lr">render</text>
<line x1="548.2842712474619" y1="156" x2="555.3553390593274" y2="148.92893218813452" style="stroke:red; stroke-width:1"/>
<line x1="548.2842712474619" y1="156" x2="555.3553390593274" y2="163.07106781186548" style="stroke:red; stroke-width:1"/>
<line x1="508.2842712474619" y1="219" x2="538.2842712474619" y2="219" style="stroke:red; stroke-width:1"/>
<ellipse cx="543.2842712474619" cy="219" rx="5" ry="2" style="stroke:red; stroke-width:1" fill="white"/>
<line x1="548.2842712474619" y1="219" x2="578.2842712474619" y2="219" style="stroke:red; stroke-width:1"/>
<text x="558" y="209" font-family="arial" font-size="10" fill="red" style="writing-mode: lr">find</text>
<circle cx="200.0" cy="440.0" r="40" fill="white" style="stroke:black; stroke-width:1"/>
<line x1="228.2842712474619" y1="468.2842712474619" x2="228.2842712474619" y2="608.2842712474619" style="stroke:black; stroke-width:1"/>
<line x1="171.7157287525381" y1="468.2842712474619" x2="171.7157287525381" y2="608.2842712474619" style="stroke:black; stroke-width:1"/>
<line x1="228.2842712474619" y1="608.2842712474619" x2="171.7157287525381" y2="608.2842712474619" style="stroke:black; stroke-width:1"/>
<text x="160.0" y="396.0" font-family="arial" font-size="14" fill="black" style="writing-mode: lr">AnotherCollection</text>
<line x1="171.7157287525381" y1="492" x2="141.7157287525381" y2="492" style="stroke:green; stroke-width:1"/>
<ellipse cx="136.7157287525381" cy="492" rx="5" ry="2" style="stroke:green; stroke-width:1" fill="white"/>
<line x1="131.7157287525381" y1="492" x2="101.7157287525381" y2="492" style="stroke:green; stroke-width:1"/>
<text x="82" y="482" font-family="arial" font-size="10" fill="green" style="writing-mode: lr">new_method</text>
<line x1="101.7157287525381" y1="492" x2="94.64466094067262" y2="484.9289321881345" style="stroke:green; stroke-width:1"/>
<line x1="101.7157287525381" y1="492" x2="92.05647048964741" y2="489.4118095489748" style="stroke:green; stroke-width:1"/>
<line x1="101.7157287525381" y1="492" x2="92.05647048964741" y2="494.5881904510252" style="stroke:green; stroke-width:1"/>
<line x1="101.7157287525381" y1="492" x2="94.64466094067262" y2="499.0710678118655" style="stroke:green; stroke-width:1"/>
<line x1="171.7157287525381" y1="534" x2="131.7157287525381" y2="534" style="stroke:green; stroke-width:1"/>
<text x="112" y="524" font-family="arial" font-size="10" fill="green" style="writing-mode: lr">new_method2</text>
<line x1="131.7157287525381" y1="534" x2="124.64466094067262" y2="526.9289321881345" style="stroke:green; stroke-width:1"/>
<line x1="131.7157287525381" y1="534" x2="124.64466094067262" y2="541.0710678118654" style="stroke:green; stroke-width:1"/>
<line x1="171.7157287525381" y1="576" x2="141.7157287525381" y2="576" style="stroke:red; stroke-width:1"/>
<ellipse cx="136.7157287525381" cy="576" rx="5" ry="2" style="stroke:red; stroke-width:1" fill="white"/>
<line x1="131.7157287525381" y1="576" x2="101.7157287525381" y2="576" style="stroke:red; stroke-width:1"/>
<text x="82" y="566" font-family="arial" font-size="10" fill="red" style="writing-mode: lr">find</text>
<line x1="228.2842712474619" y1="492" x2="258.2842712474619" y2="492" style="stroke:green; stroke-width:1"/>
<ellipse cx="263.2842712474619" cy="492" rx="5" ry="2" style="stroke:green; stroke-width:1" fill="white"/>
<line x1="268.2842712474619" y1="492" x2="298.2842712474619" y2="492" style="stroke:green; stroke-width:1"/>
<text x="278" y="482" font-family="arial" font-size="10" fill="green" style="writing-mode: lr">initialize</text>
<line x1="298.2842712474619" y1="492" x2="305.3553390593274" y2="484.9289321881345" style="stroke:green; stroke-width:1"/>
<line x1="298.2842712474619" y1="492" x2="305.3553390593274" y2="499.0710678118655" style="stroke:green; stroke-width:1"/>
<line x1="228.2842712474619" y1="513" x2="243.2842712474619" y2="513" style="stroke:red; stroke-width:1"/>
<ellipse cx="248.2842712474619" cy="513" rx="5" ry="2" style="stroke:red; stroke-width:1" fill="white"/>
<line x1="253.2842712474619" y1="513" x2="268.2842712474619" y2="513" style="stroke:red; stroke-width:1"/>
<text x="248" y="503" font-family="arial" font-size="10" fill="red" style="writing-mode: lr">initialize</text>
<line x1="268.2842712474619" y1="513" x2="275.3553390593274" y2="505.9289321881345" style="stroke:red; stroke-width:1"/>
<line x1="268.2842712474619" y1="513" x2="275.3553390593274" y2="520.0710678118654" style="stroke:red; stroke-width:1"/>
<line x1="228.2842712474619" y1="534" x2="234.2842712474619" y2="534" style="stroke:green; stroke-width:1"/>
<ellipse cx="239.2842712474619" cy="534" rx="5" ry="2" style="stroke:green; stroke-width:1" fill="white"/>
<line x1="244.2842712474619" y1="534" x2="250.2842712474619" y2="534" style="stroke:green; stroke-width:1"/>
<ellipse cx="255.2842712474619" cy="534" rx="5" ry="2" style="stroke:green; stroke-width:1" fill="white"/>
<line x1="260.2842712474619" y1="534" x2="266.2842712474619" y2="534" style="stroke:green; stroke-width:1"/>
<text x="248" y="524" font-family="arial" font-size="10" fill="green" style="writing-mode: lr">show</text>
<line x1="228.2842712474619" y1="534" x2="244.2842712474619" y2="534" style="stroke:red; stroke-width:1"/>
<ellipse cx="249.2842712474619" cy="534" rx="5" ry="2" style="stroke:red; stroke-width:1" fill="white"/>
<line x1="254.2842712474619" y1="534" x2="270.2842712474619" y2="534" style="stroke:red; stroke-width:1"/>
<ellipse cx="275.2842712474619" cy="534" rx="5" ry="2" style="stroke:red; stroke-width:1" fill="white"/>
<line x1="280.2842712474619" y1="534" x2="296.2842712474619" y2="534" style="stroke:red; stroke-width:1"/>
<text x="278" y="524" font-family="arial" font-size="10" fill="red" style="writing-mode: lr">show</text>
<line x1="228.2842712474619" y1="576" x2="268.2842712474619" y2="576" style="stroke:black; stroke-width:1"/>
<text x="248" y="566" font-family="arial" font-size="10" fill="black" style="writing-mode: lr">render</text>
<line x1="268.2842712474619" y1="576" x2="275.3553390593274" y2="568.9289321881346" style="stroke:black; stroke-width:1"/>
<line x1="268.2842712474619" y1="576" x2="275.3553390593274" y2="583.0710678118654" style="stroke:black; stroke-width:1"/>
</svg>