<svg width="1800.0" height="400.0" style="background:white" xmlns="http://www.w3.org/2000/svg">
<circle cx="200.0" cy="120.0" r="40" fill="white" style="stroke:black; stroke-width:1"/>
<line x1="228.2842712474619" y1="148.2842712474619" x2="228.2842712474619" y2="288.2842712474619" style="stroke:black; stroke-width:1"/>
<line x1="171.7157287525381" y1="148.2842712474619" x2="171.7157287525381" y2="288.2842712474619" style="stroke:black; stroke-width:1"/>
<line x1="228.2842712474619" y1="288.2842712474619" x2="171.7157287525381" y2="288.2842712474619" style="stroke:black; stroke-width:1"/>
<text x="160.0" y="76.0" font-family="arial" font-size="{:font_size=>10}" fill="black" style="writing-mode: lr">ThingCollection</text>
<line x1="171.7157287525381" y1="156" x2="131.7157287525381" y2="156" style="stroke:black; stroke-width:1"/>
<text x="112" y="146" font-family="arial" font-size="9" fill="black" style="writing-mode: lr">initialize</text>
<line x1="131.7157287525381" y1="156" x2="124.64466094067262" y2="148.92893218813452" style="stroke:black; stroke-width:1"/>
<line x1="131.7157287525381" y1="156" x2="124.64466094067262" y2="163.07106781186548" style="stroke:black; stroke-width:1"/>
<line x1="171.7157287525381" y1="198" x2="101.7157287525381" y2="198" style="stroke:black; stroke-width:1"/>
<text x="82" y="188" font-family="arial" font-size="9" fill="black" style="writing-mode: lr">one_type_things</text>
<line x1="101.7157287525381" y1="198" x2="94.64466094067262" y2="190.92893218813452" style="stroke:black; stroke-width:1"/>
<line x1="101.7157287525381" y1="198" x2="92.80566351065443" y2="193.46009500260453" style="stroke:black; stroke-width:1"/>
<line x1="101.7157287525381" y1="198" x2="91.83884534658672" y2="196.43565534959768" style="stroke:black; stroke-width:1"/>
<line x1="101.7157287525381" y1="198" x2="91.83884534658672" y2="199.56434465040232" style="stroke:black; stroke-width:1"/>
<line x1="101.7157287525381" y1="198" x2="92.80566351065443" y2="202.53990499739547" style="stroke:black; stroke-width:1"/>
<line x1="101.7157287525381" y1="198" x2="94.64466094067262" y2="205.07106781186548" style="stroke:black; stroke-width:1"/>
<line x1="171.7157287525381" y1="240" x2="101.7157287525381" y2="240" style="stroke:black; stroke-width:1"/>
<text x="82" y="230" font-family="arial" font-size="9" fill="black" style="writing-mode: lr">one_thing_by_type</text>
<line x1="101.7157287525381" y1="240" x2="94.64466094067262" y2="232.92893218813452" style="stroke:black; stroke-width:1"/>
<line x1="101.7157287525381" y1="240" x2="91.7157287525381" y2="240.0" style="stroke:black; stroke-width:1"/>
<line x1="101.7157287525381" y1="240" x2="94.64466094067262" y2="247.07106781186548" style="stroke:black; stroke-width:1"/>
<line x1="228.2842712474619" y1="156" x2="298.2842712474619" y2="156" style="stroke:black; stroke-width:1"/>
<text x="278" y="146" font-family="arial" font-size="9" fill="black" style="writing-mode: lr">weather_clothing</text>
<line x1="298.2842712474619" y1="156" x2="305.3553390593274" y2="148.92893218813452" style="stroke:black; stroke-width:1"/>
<line x1="298.2842712474619" y1="156" x2="307.94352951035256" y2="153.4118095489748" style="stroke:black; stroke-width:1"/>
<line x1="298.2842712474619" y1="156" x2="307.94352951035256" y2="158.5881904510252" style="stroke:black; stroke-width:1"/>
<line x1="298.2842712474619" y1="156" x2="305.3553390593274" y2="163.07106781186548" style="stroke:black; stroke-width:1"/>
<line x1="228.2842712474619" y1="198" x2="234.2842712474619" y2="198" style="stroke:black; stroke-width:1"/>
<ellipse cx="239" cy="198" rx="5" ry="2" style="stroke:black; stroke-width:1" fill="white"/>
<line x1="244.2842712474619" y1="198" x2="250.2842712474619" y2="198" style="stroke:black; stroke-width:1"/>
<ellipse cx="255" cy="198" rx="5" ry="2" style="stroke:black; stroke-width:1" fill="white"/>
<line x1="260.2842712474619" y1="198" x2="266.2842712474619" y2="198" style="stroke:black; stroke-width:1"/>
<ellipse cx="271" cy="198" rx="5" ry="2" style="stroke:black; stroke-width:1" fill="white"/>
<line x1="276.2842712474619" y1="198" x2="282.2842712474619" y2="198" style="stroke:black; stroke-width:1"/>
<ellipse cx="287" cy="198" rx="5" ry="2" style="stroke:black; stroke-width:1" fill="white"/>
<line x1="292.2842712474619" y1="198" x2="298.2842712474619" y2="198" style="stroke:black; stroke-width:1"/>
<text x="278" y="188" font-family="arial" font-size="9" fill="black" style="writing-mode: lr">signal</text>
<line x1="298.2842712474619" y1="198" x2="305.3553390593274" y2="190.92893218813452" style="stroke:black; stroke-width:1"/>
<line x1="298.2842712474619" y1="198" x2="307.52306657257475" y2="194.1731656763491" style="stroke:black; stroke-width:1"/>
<line x1="298.2842712474619" y1="198" x2="308.2842712474619" y2="198.0" style="stroke:black; stroke-width:1"/>
<line x1="298.2842712474619" y1="198" x2="307.52306657257475" y2="201.8268343236509" style="stroke:black; stroke-width:1"/>
<line x1="298.2842712474619" y1="198" x2="305.3553390593274" y2="205.07106781186548" style="stroke:black; stroke-width:1"/>
<line x1="177" y1="288.2842712474619" x2="177" y2="304.2842712474619" style="stroke:black; stroke-width:1"/>
<ellipse cx="177" cy="309" rx="2" ry="5" style="stroke:black; stroke-width:1" fill="white"/>
<line x1="177" y1="314.2842712474619" x2="177" y2="330.2842712474619" style="stroke:black; stroke-width:1"/>
<ellipse cx="177" cy="335" rx="2" ry="5" style="stroke:black; stroke-width:1" fill="white"/>
<line x1="177" y1="340.2842712474619" x2="177" y2="356.2842712474619" style="stroke:black; stroke-width:1"/>
<text x="187" y="298" font-family="arial" font-size="9" fill="black" style="writing-mode: tb">all_types</text>
<line x1="202" y1="288.2842712474619" x2="202" y2="318.2842712474619" style="stroke:black; stroke-width:1"/>
<ellipse cx="202" cy="323" rx="2" ry="5" style="stroke:black; stroke-width:1" fill="white"/>
<line x1="202" y1="328.2842712474619" x2="202" y2="358.2842712474619" style="stroke:black; stroke-width:1"/>
<text x="212" y="298" font-family="arial" font-size="9" fill="black" style="writing-mode: tb">message</text>
<circle cx="480.0" cy="120.0" r="40" fill="white" style="stroke:black; stroke-width:1"/>
<line x1="508.2842712474619" y1="148.2842712474619" x2="508.2842712474619" y2="288.2842712474619" style="stroke:black; stroke-width:1"/>
<line x1="451.7157287525381" y1="148.2842712474619" x2="451.7157287525381" y2="288.2842712474619" style="stroke:black; stroke-width:1"/>
<line x1="508.2842712474619" y1="288.2842712474619" x2="451.7157287525381" y2="288.2842712474619" style="stroke:black; stroke-width:1"/>
<text x="440.0" y="76.0" font-family="arial" font-size="{:font_size=>10}" fill="black" style="writing-mode: lr">AnotherCollection</text>
<line x1="451.7157287525381" y1="156" x2="411.7157287525381" y2="156" style="stroke:black; stroke-width:1"/>
<text x="392" y="146" font-family="arial" font-size="9" fill="black" style="writing-mode: lr">initialize</text>
<line x1="411.7157287525381" y1="156" x2="404.6446609406726" y2="148.92893218813452" style="stroke:black; stroke-width:1"/>
<line x1="508.2842712474619" y1="156" x2="548.2842712474619" y2="156" style="stroke:black; stroke-width:1"/>
<text x="528" y="146" font-family="arial" font-size="9" fill="black" style="writing-mode: lr">render</text>
<line x1="548.2842712474619" y1="156" x2="555.3553390593274" y2="148.92893218813452" style="stroke:black; stroke-width:1"/>
<line x1="548.2842712474619" y1="156" x2="555.3553390593274" y2="163.07106781186548" style="stroke:black; stroke-width:1"/>
<line x1="457" y1="288.2842712474619" x2="457" y2="304.2842712474619" style="stroke:black; stroke-width:1"/>
<ellipse cx="457" cy="309" rx="2" ry="5" style="stroke:black; stroke-width:1" fill="white"/>
<line x1="457" y1="314.2842712474619" x2="457" y2="330.2842712474619" style="stroke:black; stroke-width:1"/>
<ellipse cx="457" cy="335" rx="2" ry="5" style="stroke:black; stroke-width:1" fill="white"/>
<line x1="457" y1="340.2842712474619" x2="457" y2="356.2842712474619" style="stroke:black; stroke-width:1"/>
<text x="467" y="298" font-family="arial" font-size="9" fill="black" style="writing-mode: tb">show</text>
<line x1="482" y1="288.2842712474619" x2="482" y2="318.2842712474619" style="stroke:black; stroke-width:1"/>
<ellipse cx="482" cy="323" rx="2" ry="5" style="stroke:black; stroke-width:1" fill="white"/>
<line x1="482" y1="328.2842712474619" x2="482" y2="358.2842712474619" style="stroke:black; stroke-width:1"/>
<text x="492" y="298" font-family="arial" font-size="9" fill="black" style="writing-mode: tb">find</text>
<circle cx="760.0" cy="120.0" r="40" fill="white" style="stroke:black; stroke-width:1"/>
<line x1="788.2842712474619" y1="148.2842712474619" x2="788.2842712474619" y2="288.2842712474619" style="stroke:black; stroke-width:1"/>
<line x1="731.7157287525381" y1="148.2842712474619" x2="731.7157287525381" y2="288.2842712474619" style="stroke:black; stroke-width:1"/>
<line x1="788.2842712474619" y1="288.2842712474619" x2="731.7157287525381" y2="288.2842712474619" style="stroke:black; stroke-width:1"/>
<text x="720.0" y="76.0" font-family="arial" font-size="{:font_size=>10}" fill="black" style="writing-mode: lr">SomeEntity</text>
<line x1="731.7157287525381" y1="156" x2="691.7157287525381" y2="156" style="stroke:black; stroke-width:1"/>
<text x="672" y="146" font-family="arial" font-size="9" fill="black" style="writing-mode: lr">initialize</text>
<line x1="691.7157287525381" y1="156" x2="684.6446609406727" y2="148.92893218813452" style="stroke:black; stroke-width:1"/>
<line x1="691.7157287525381" y1="156" x2="681.7157287525381" y2="156.0" style="stroke:black; stroke-width:1"/>
<line x1="691.7157287525381" y1="156" x2="684.6446609406726" y2="163.07106781186548" style="stroke:black; stroke-width:1"/>
<line x1="788.2842712474619" y1="156" x2="803.2842712474619" y2="156" style="stroke:black; stroke-width:1"/>
<ellipse cx="808" cy="156" rx="5" ry="2" style="stroke:black; stroke-width:1" fill="white"/>
<line x1="813.2842712474619" y1="156" x2="828.2842712474619" y2="156" style="stroke:black; stroke-width:1"/>
<text x="808" y="146" font-family="arial" font-size="9" fill="black" style="writing-mode: lr">compute</text>
<line x1="828.2842712474619" y1="156" x2="835.3553390593274" y2="148.92893218813452" style="stroke:black; stroke-width:1"/>
<line x1="828.2842712474619" y1="156" x2="837.9435295103526" y2="153.4118095489748" style="stroke:black; stroke-width:1"/>
<line x1="828.2842712474619" y1="156" x2="837.9435295103526" y2="158.5881904510252" style="stroke:black; stroke-width:1"/>
<line x1="828.2842712474619" y1="156" x2="835.3553390593274" y2="163.07106781186548" style="stroke:black; stroke-width:1"/>
<line x1="737" y1="288.2842712474619" x2="737" y2="303.2842712474619" style="stroke:black; stroke-width:1"/>
<ellipse cx="737" cy="308" rx="2" ry="5" style="stroke:black; stroke-width:1" fill="white"/>
<line x1="737" y1="313.2842712474619" x2="737" y2="328.2842712474619" style="stroke:black; stroke-width:1"/>
<text x="747" y="298" font-family="arial" font-size="9" fill="black" style="writing-mode: tb">scan</text>
<circle cx="1040.0" cy="120.0" r="40" fill="white" style="stroke:black; stroke-width:1"/>
<line x1="1068.284271247462" y1="148.2842712474619" x2="1068.284271247462" y2="288.2842712474619" style="stroke:black; stroke-width:1"/>
<line x1="1011.7157287525381" y1="148.2842712474619" x2="1011.7157287525381" y2="288.2842712474619" style="stroke:black; stroke-width:1"/>
<line x1="1068.284271247462" y1="288.2842712474619" x2="1011.7157287525381" y2="288.2842712474619" style="stroke:black; stroke-width:1"/>
<text x="1000.0" y="76.0" font-family="arial" font-size="{:font_size=>10}" fill="black" style="writing-mode: lr">Legs</text>
<line x1="1017" y1="288.2842712474619" x2="1017" y2="328.2842712474619" style="stroke:black; stroke-width:1"/>
<text x="1027" y="298" font-family="arial" font-size="9" fill="black" style="writing-mode: tb">initialize</text>
<line x1="1042" y1="288.2842712474619" x2="1042" y2="304.2842712474619" style="stroke:black; stroke-width:1"/>
<ellipse cx="1042" cy="309" rx="2" ry="5" style="stroke:black; stroke-width:1" fill="white"/>
<line x1="1042" y1="314.2842712474619" x2="1042" y2="330.2842712474619" style="stroke:black; stroke-width:1"/>
<ellipse cx="1042" cy="335" rx="2" ry="5" style="stroke:black; stroke-width:1" fill="white"/>
<line x1="1042" y1="340.2842712474619" x2="1042" y2="356.2842712474619" style="stroke:black; stroke-width:1"/>
<text x="1052" y="298" font-family="arial" font-size="9" fill="black" style="writing-mode: tb">clean</text>
<circle cx="1320.0" cy="120.0" r="40" fill="white" style="stroke:black; stroke-width:1"/>
<line x1="1348.284271247462" y1="148.2842712474619" x2="1348.284271247462" y2="288.2842712474619" style="stroke:black; stroke-width:1"/>
<line x1="1291.715728752538" y1="148.2842712474619" x2="1291.715728752538" y2="288.2842712474619" style="stroke:black; stroke-width:1"/>
<line x1="1348.284271247462" y1="288.2842712474619" x2="1291.715728752538" y2="288.2842712474619" style="stroke:black; stroke-width:1"/>
<text x="1280.0" y="76.0" font-family="arial" font-size="{:font_size=>10}" fill="black" style="writing-mode: lr">Arms</text>
<line x1="1291.715728752538" y1="156" x2="1251.715728752538" y2="156" style="stroke:black; stroke-width:1"/>
<text x="1232" y="146" font-family="arial" font-size="9" fill="black" style="writing-mode: lr">initialize</text>
<line x1="1251.715728752538" y1="156" x2="1244.6446609406726" y2="148.92893218813452" style="stroke:black; stroke-width:1"/>
<line x1="1251.715728752538" y1="156" x2="1244.6446609406726" y2="163.07106781186548" style="stroke:black; stroke-width:1"/>
<line x1="1291.715728752538" y1="219" x2="1261.715728752538" y2="219" style="stroke:black; stroke-width:1"/>
<ellipse cx="1257" cy="219" rx="5" ry="2" style="stroke:black; stroke-width:1" fill="white"/>
<line x1="1251.715728752538" y1="219" x2="1221.715728752538" y2="219" style="stroke:black; stroke-width:1"/>
<text x="1202" y="209" font-family="arial" font-size="9" fill="black" style="writing-mode: lr">sort</text>
<line x1="1221.715728752538" y1="219" x2="1214.6446609406726" y2="211.92893218813452" style="stroke:black; stroke-width:1"/>
<line x1="1348.284271247462" y1="156" x2="1363.284271247462" y2="156" style="stroke:black; stroke-width:1"/>
<ellipse cx="1368" cy="156" rx="5" ry="2" style="stroke:black; stroke-width:1" fill="white"/>
<line x1="1373.284271247462" y1="156" x2="1388.284271247462" y2="156" style="stroke:black; stroke-width:1"/>
<text x="1368" y="146" font-family="arial" font-size="9" fill="black" style="writing-mode: lr">report</text>
<line x1="1388.284271247462" y1="156" x2="1395.3553390593274" y2="148.92893218813452" style="stroke:black; stroke-width:1"/>
<circle cx="1600.0" cy="120.0" r="40" fill="white" style="stroke:black; stroke-width:1"/>
<line x1="1628.284271247462" y1="148.2842712474619" x2="1628.284271247462" y2="288.2842712474619" style="stroke:black; stroke-width:1"/>
<line x1="1571.715728752538" y1="148.2842712474619" x2="1571.715728752538" y2="288.2842712474619" style="stroke:black; stroke-width:1"/>
<line x1="1628.284271247462" y1="288.2842712474619" x2="1571.715728752538" y2="288.2842712474619" style="stroke:black; stroke-width:1"/>
<text x="1560.0" y="76.0" font-family="arial" font-size="{:font_size=>10}" fill="black" style="writing-mode: lr">EmptyThing</text>
</svg>