<svg width="400" height="400" style="background:white" xmlns="http://www.w3.org/2000/svg">
<circle cx="200.0" cy="120.0" r="40" fill="white" style="stroke:black; stroke-width:1"/>
<line x1="228.2842712474619" y1="148.2842712474619" x2="228.2842712474619" y2="288.2842712474619" style="stroke:black; stroke-width:1"/>
<line x1="171.7157287525381" y1="148.2842712474619" x2="171.7157287525381" y2="288.2842712474619" style="stroke:black; stroke-width:1"/>
<line x1="228.2842712474619" y1="288.2842712474619" x2="171.7157287525381" y2="288.2842712474619" style="stroke:black; stroke-width:1"/>
<text x="120.0" y="76.0" font-family="arial" font-size="{:font_size=>10}" fill="black" style="writing-mode: lr">ThingCollection</text>
<line x1="171.7157287525381" y1="156" x2="131.7157287525381" y2="156" style="stroke:black; stroke-width:1"/>
<text x="105.60000000000001" y="148" font-family="arial" font-size="9" fill="black" style="writing-mode: lr">initialize</text>
<line x1="131.7157287525381" y1="156" x2="124.64466094067262" y2="148.92893218813452" style="stroke:black; stroke-width:1"/>
<line x1="131.7157287525381" y1="156" x2="124.64466094067262" y2="163.07106781186548" style="stroke:black; stroke-width:1"/>
<line x1="171.7157287525381" y1="198" x2="101.7157287525381" y2="198" style="stroke:black; stroke-width:1"/>
<text x="81.60000000000001" y="188" font-family="arial" font-size="9" fill="black" style="writing-mode: lr">one_type_things</text>
<line x1="101.7157287525381" y1="198" x2="94.64466094067262" y2="190.92893218813452" style="stroke:black; stroke-width:1"/>
<line x1="101.7157287525381" y1="198" x2="92.80566351065443" y2="193.46009500260453" style="stroke:black; stroke-width:1"/>
<line x1="101.7157287525381" y1="198" x2="91.83884534658672" y2="196.43565534959768" style="stroke:black; stroke-width:1"/>
<line x1="101.7157287525381" y1="198" x2="91.83884534658672" y2="199.56434465040232" style="stroke:black; stroke-width:1"/>
<line x1="101.7157287525381" y1="198" x2="92.80566351065443" y2="202.53990499739547" style="stroke:black; stroke-width:1"/>
<line x1="101.7157287525381" y1="198" x2="94.64466094067262" y2="205.07106781186548" style="stroke:black; stroke-width:1"/>
<line x1="171.7157287525381" y1="240" x2="101.7157287525381" y2="240" style="stroke:black; stroke-width:1"/>
<text x="81.60000000000001" y="228" font-family="arial" font-size="9" fill="black" style="writing-mode: lr">one_thing_by_type</text>
<line x1="101.7157287525381" y1="240" x2="94.64466094067262" y2="232.92893218813452" style="stroke:black; stroke-width:1"/>
<line x1="101.7157287525381" y1="240" x2="91.7157287525381" y2="240.0" style="stroke:black; stroke-width:1"/>
<line x1="101.7157287525381" y1="240" x2="94.64466094067262" y2="247.07106781186548" style="stroke:black; stroke-width:1"/>
<line x1="228.2842712474619" y1="156" x2="298.2842712474619" y2="156" style="stroke:black; stroke-width:1"/>
<text x="238.4" y="148" font-family="arial" font-size="9" fill="black" style="writing-mode: lr">weather_clothing</text>
<line x1="298.2842712474619" y1="156" x2="305.3553390593274" y2="148.92893218813452" style="stroke:black; stroke-width:1"/>
<line x1="298.2842712474619" y1="156" x2="307.94352951035256" y2="153.4118095489748" style="stroke:black; stroke-width:1"/>
<line x1="298.2842712474619" y1="156" x2="307.94352951035256" y2="158.5881904510252" style="stroke:black; stroke-width:1"/>
<line x1="298.2842712474619" y1="156" x2="305.3553390593274" y2="163.07106781186548" style="stroke:black; stroke-width:1"/>
<line x1="228.2842712474619" y1="198" x2="234.2842712474619" y2="198" style="stroke:black; stroke-width:1"/>
<ellipse cx="239" cy="198" rx="5" ry="2" style="stroke:black; stroke-width:1" fill="white"/>
<line x1="244.2842712474619" y1="198" x2="250.2842712474619" y2="198" style="stroke:black; stroke-width:1"/>
<ellipse cx="255" cy="198" rx="5" ry="2" style="stroke:black; stroke-width:1" fill="white"/>
<line x1="260.2842712474619" y1="198" x2="266.2842712474619" y2="198" style="stroke:black; stroke-width:1"/>
<ellipse cx="271" cy="198" rx="5" ry="2" style="stroke:black; stroke-width:1" fill="white"/>
<line x1="276.2842712474619" y1="198" x2="282.2842712474619" y2="198" style="stroke:black; stroke-width:1"/>
<ellipse cx="287" cy="198" rx="5" ry="2" style="stroke:black; stroke-width:1" fill="white"/>
<line x1="292.2842712474619" y1="198" x2="298.2842712474619" y2="198" style="stroke:black; stroke-width:1"/>
<text x="238.4" y="188" font-family="arial" font-size="9" fill="black" style="writing-mode: lr">signal</text>
<line x1="298.2842712474619" y1="198" x2="305.3553390593274" y2="190.92893218813452" style="stroke:black; stroke-width:1"/>
<line x1="298.2842712474619" y1="198" x2="307.52306657257475" y2="194.1731656763491" style="stroke:black; stroke-width:1"/>
<line x1="298.2842712474619" y1="198" x2="308.2842712474619" y2="198.0" style="stroke:black; stroke-width:1"/>
<line x1="298.2842712474619" y1="198" x2="307.52306657257475" y2="201.8268343236509" style="stroke:black; stroke-width:1"/>
<line x1="298.2842712474619" y1="198" x2="305.3553390593274" y2="205.07106781186548" style="stroke:black; stroke-width:1"/>
<line x1="180" y1="288.2842712474619" x2="180" y2="304.2842712474619" style="stroke:black; stroke-width:1"/>
<ellipse cx="180" cy="309" rx="2" ry="5" style="stroke:black; stroke-width:1" fill="white"/>
<line x1="180" y1="306.2842712474619" x2="180" y2="322.2842712474619" style="stroke:black; stroke-width:1"/>
<ellipse cx="180" cy="327" rx="2" ry="5" style="stroke:black; stroke-width:1" fill="white"/>
<line x1="180" y1="324.2842712474619" x2="180" y2="340.2842712474619" style="stroke:black; stroke-width:1"/>
<text x="189.0" y="294" font-family="arial" font-size="9" fill="black" style="writing-mode: tb">all_types</text>
<line x1="205" y1="288.2842712474619" x2="205" y2="318.2842712474619" style="stroke:black; stroke-width:1"/>
<ellipse cx="205" cy="323" rx="2" ry="5" style="stroke:black; stroke-width:1" fill="white"/>
<line x1="205" y1="320.2842712474619" x2="205" y2="350.2842712474619" style="stroke:black; stroke-width:1"/>
<text x="215.25" y="294" font-family="arial" font-size="9" fill="black" style="writing-mode: tb">message</text>
</svg>